<svg xmlns="http://www.w3.org/2000/svg" id="Ebene_1" version="1.1" viewBox="0 0 306.91 297.98"><defs><style>.st6{fill:#005b98}</style></defs><path d="M113.97 189.7c-9.7 0-18.7-1.88-26.98-5.64s-15.49-8.96-21.63-15.59-10.92-14.31-14.35-23.02-5.15-17.98-5.15-27.82c0-10.63 1.9-20.29 5.69-29.01 3.79-8.71 8.94-16.25 15.44-22.62q9.75-9.555 22.08-14.7c8.22-3.43 16.71-5.15 25.49-5.15 9.64 0 19.14 2.24 28.51 6.73s17.82 11.75 25.34 21.78l-26.53 14.26c-4.03-4.55-8.43-7.9-13.22-10.05-4.79-2.14-9.62-3.22-14.5-3.22s-9.74 1.02-14.35 3.07c-4.62 2.05-8.75 4.95-12.38 8.71s-6.52 8.25-8.66 13.46c-2.15 5.21-3.22 10.99-3.22 17.33 0 5.81 1.01 11.25 3.02 16.33q3.015 7.62 8.37 13.32c3.56 3.8 7.69 6.77 12.38 8.91 4.69 2.15 9.7 3.22 15.05 3.22 3.03 0 6.05-.41 9.06-1.24 3-.82 5.92-2.06 8.76-3.71s5.51-3.76 8.02-6.34c2.51-2.57 4.78-5.61 6.83-9.11h-18.61v-25.74h53.66c.53 10.36-.88 20.11-4.21 29.25s-8.14 17.21-14.4 24.21c-6.27 7-13.63 12.47-22.08 16.43q-12.675 5.94-27.42 5.94Z" class="st6"/><path d="M231.36 113.84h29.7v138.6h-29.7v-59.4h-49.1v59.4h-29.7v-138.6h29.7v49.5h49.1z" class="st6"/></svg>