<svg xmlns="http://www.w3.org/2000/svg" viewBox="0 0 891.85 359.99"><path d="M113.97 189.7c-9.7 0-18.7-1.88-26.98-5.64s-15.49-8.96-21.63-15.59-10.92-14.31-14.35-23.02-5.15-17.98-5.15-27.82c0-10.63 1.9-20.29 5.69-29.01 3.79-8.71 8.94-16.25 15.44-22.62q9.75-9.555 22.08-14.7c8.22-3.43 16.71-5.15 25.49-5.15 9.64 0 19.14 2.24 28.51 6.73s17.82 11.75 25.34 21.78l-26.53 14.26c-4.03-4.55-8.43-7.9-13.22-10.05-4.79-2.14-9.62-3.22-14.5-3.22s-9.74 1.02-14.35 3.07c-4.62 2.05-8.75 4.95-12.38 8.71s-6.52 8.25-8.66 13.46c-2.15 5.21-3.22 10.99-3.22 17.33 0 5.81 1.01 11.25 3.02 16.33q3.015 7.62 8.37 13.32c3.56 3.8 7.69 6.77 12.38 8.91 4.69 2.15 9.7 3.22 15.05 3.22 3.03 0 6.05-.41 9.06-1.24 3-.82 5.92-2.06 8.76-3.71s5.51-3.76 8.02-6.34c2.51-2.57 4.78-5.61 6.83-9.11h-18.61v-25.74h53.66c.53 10.36-.88 20.11-4.21 29.25s-8.14 17.21-14.4 24.21c-6.27 7-13.63 12.47-22.08 16.43q-12.675 5.94-27.42 5.94Z" class="st7"/><path d="M231.36 113.84h29.7v138.6h-29.7v-59.4h-49.1v59.4h-29.7v-138.6h29.7v49.5h49.1zm73.93 55.28c-3.72 0-7.18-.72-10.35-2.17-3.18-1.44-5.95-3.44-8.3-5.98s-4.19-5.49-5.51-8.83q-1.98-5.01-1.98-10.68 0-6.12 2.19-11.13c1.46-3.34 3.43-6.24 5.93-8.68s5.32-4.33 8.47-5.64c3.15-1.32 6.42-1.98 9.79-1.98 3.7 0 7.35.86 10.94 2.58 3.6 1.72 6.84 4.51 9.73 8.36l-10.18 5.47c-1.55-1.75-3.24-3.03-5.07-3.86-1.84-.82-3.69-1.23-5.57-1.23s-3.74.39-5.51 1.18-3.36 1.9-4.75 3.34-2.5 3.17-3.33 5.17c-.82 2-1.23 4.22-1.23 6.65 0 2.23.39 4.32 1.16 6.27s1.84 3.65 3.21 5.11 2.95 2.6 4.75 3.42 3.72 1.23 5.78 1.23c1.17 0 2.32-.16 3.48-.48 1.15-.32 2.27-.79 3.36-1.42s2.12-1.44 3.08-2.43 1.84-2.15 2.62-3.5h-7.14v-9.88h20.6c.2 3.98-.34 7.72-1.62 11.23s-3.12 6.61-5.53 9.29a26.2 26.2 0 0 1-8.47 6.31q-4.86 2.28-10.53 2.28Zm57.57-38.99h12.16l-20.82 57h-12.08l6.84-19-13.68-38h12.46l6.92 22.42 8.21-22.42Zm17.86 38v-38h11.4v2.39c1.27-1.09 2.71-1.94 4.33-2.55s3.33-.91 5.13-.91c2.53 0 4.87.58 6.99 1.73 2.13 1.15 3.85 2.69 5.17 4.62 1.34-1.93 3.07-3.46 5.19-4.62 2.12-1.15 4.43-1.73 6.94-1.73 2.74 0 5.22.67 7.45 2s4.01 3.11 5.34 5.34 1.99 4.71 1.99 7.45v24.28h-11.4v-21.09c0-1.19-.29-2.27-.87-3.23a6.8 6.8 0 0 0-2.32-2.32c-.96-.58-2.04-.87-3.23-.87s-2.27.29-3.25.87-1.76 1.36-2.34 2.32-.87 2.04-.87 3.23v21.09h-11.4v-21.09c0-1.19-.29-2.27-.86-3.23a6.5 6.5 0 0 0-2.32-2.32c-.97-.58-2.06-.87-3.25-.87s-2.24.29-3.21.87c-.98.58-1.76 1.36-2.34 2.32s-.87 2.04-.87 3.23v21.09zm103.2-24.28v24.28h-11.4v-21.09c0-1.19-.29-2.27-.87-3.25a6.5 6.5 0 0 0-2.32-2.32c-.96-.57-2.04-.85-3.23-.85s-2.27.29-3.25.85c-.98.57-1.75 1.34-2.32 2.32s-.85 2.06-.85 3.25v21.09h-11.4l-.04-38h11.4l.04 2.39c1.27-1.09 2.71-1.94 4.33-2.55s3.33-.91 5.13-.91c2.74 0 5.22.67 7.45 2q3.345 1.995 5.34 5.34c1.995 3.345 2 4.71 2 7.45Zm34.13-13.72h11.4v38h-11.44l-.53-3.42c-.94 1.32-2.12 2.38-3.55 3.19s-3.1 1.22-5 1.22c-2.84 0-5.49-.53-7.96-1.6a20.5 20.5 0 0 1-6.52-4.43 20.6 20.6 0 0 1-4.39-6.54c-1.05-2.47-1.58-5.12-1.58-7.96s.49-5.24 1.48-7.6 2.38-4.43 4.16-6.21c1.79-1.79 3.85-3.19 6.19-4.2s4.86-1.52 7.54-1.52c2.18 0 4.16.45 5.95 1.35q2.685 1.35 4.77 3.36l-.53-3.65Zm-9.43 28.04c1.57 0 3-.4 4.29-1.22 1.29-.81 2.32-1.9 3.08-3.27s1.14-2.89 1.14-4.56-.38-3.19-1.14-4.56-1.79-2.46-3.08-3.27-2.72-1.22-4.29-1.22-3 .41-4.28 1.22-2.29 1.9-3.04 3.27-1.12 2.89-1.12 4.56.38 3.19 1.14 4.56 1.78 2.46 3.06 3.27 2.69 1.22 4.24 1.22m39.37 10.64c-1.93-.18-3.78-.6-5.55-1.25-1.77-.66-3.36-1.56-4.75-2.7a12.4 12.4 0 0 1-3.31-4.18l9.58-4.1c.25.28.61.63 1.06 1.04s1.03.79 1.73 1.12 1.54.49 2.53.49q.99 0 1.92-.21c.62-.14 1.13-.39 1.52-.74s.59-.85.59-1.48c0-.71-.26-1.25-.78-1.61-.52-.37-1.15-.63-1.88-.8-.74-.16-1.42-.3-2.05-.4-2.25-.35-4.42-1.07-6.48-2.15s-3.76-2.48-5.07-4.22c-1.32-1.73-1.98-3.77-1.98-6.1 0-2.61.67-4.86 2.01-6.76s3.1-3.36 5.26-4.39 4.5-1.54 7.01-1.54c2.96 0 5.71.61 8.23 1.82 2.52 1.22 4.59 2.96 6.21 5.24l-8.97 5.32c-.3-.38-.68-.77-1.12-1.16s-.95-.73-1.52-1.03a5.2 5.2 0 0 0-1.84-.55c-.89-.08-1.68-.04-2.38.1s-1.25.42-1.65.84-.61 1.02-.61 1.81c0 .73.35 1.27 1.06 1.6s1.51.57 2.39.72 1.61.32 2.17.49c2.18.71 4.23 1.63 6.16 2.77 1.92 1.14 3.48 2.52 4.66 4.14s1.73 3.52 1.65 5.7q0 3.795-2.28 6.69c-1.52 1.93-3.48 3.38-5.89 4.37s-4.95 1.35-7.64 1.1Zm26.9-42.63c-1.65 0-3.03-.54-4.14-1.63-1.12-1.09-1.67-2.44-1.67-4.07s.56-2.95 1.67-4.05 2.48-1.65 4.1-1.65 2.95.55 4.05 1.65q1.65 1.65 1.65 4.05c0 2.4-.54 2.98-1.62 4.07s-2.43 1.63-4.05 1.63Zm-5.77 3.95h11.4v38h-11.4zm19 24.21v-24.21h11.4v21.01c0 1.19.29 2.27.87 3.25s1.36 1.75 2.34 2.32c.97.57 2.04.85 3.21.85s2.27-.29 3.25-.85a6.37 6.37 0 0 0 3.18-5.57v-21.01h11.4l.04 38h-11.4l-.04-2.47a14.4 14.4 0 0 1-4.33 2.55c-1.62.61-3.33.91-5.13.91-2.71 0-5.19-.66-7.43-1.99a15.15 15.15 0 0 1-5.36-5.34c-1.33-2.23-2-4.71-2-7.45m43.28 13.79v-38h11.4v2.39c1.27-1.09 2.71-1.94 4.33-2.55s3.33-.91 5.13-.91c2.53 0 4.86.58 6.99 1.73s3.85 2.69 5.17 4.62c1.34-1.93 3.07-3.46 5.19-4.62 2.12-1.15 4.43-1.73 6.94-1.73 2.74 0 5.22.67 7.45 2q3.345 1.995 5.34 5.34c1.995 3.345 2 4.71 2 7.45v24.28h-11.4v-21.09c0-1.19-.29-2.27-.87-3.23a6.8 6.8 0 0 0-2.32-2.32c-.96-.58-2.04-.87-3.23-.87s-2.27.29-3.25.87a6.75 6.75 0 0 0-2.34 2.32c-.58.96-.87 2.04-.87 3.23v21.09h-11.4v-21.09c0-1.19-.29-2.27-.85-3.23a6.5 6.5 0 0 0-2.32-2.32c-.98-.58-2.06-.87-3.25-.87s-2.24.29-3.21.87a6.75 6.75 0 0 0-2.34 2.32c-.58.96-.87 2.04-.87 3.23v21.09h-11.4Zm-320.49 30.8h11.4v53.2h-11.4v-22.8h-18.85v22.8h-11.4v-53.2h11.4v19h18.85zm36.48 54.19c-3.5 0-6.68-.9-9.56-2.7s-5.17-4.22-6.88-7.26-2.57-6.4-2.57-10.07c0-2.76.49-5.35 1.48-7.77s2.35-4.55 4.08-6.38a19 19 0 0 1 6.06-4.31c2.3-1.04 4.76-1.56 7.37-1.56 3.04 0 5.82.67 8.34 2s4.65 3.13 6.38 5.4 2.97 4.82 3.71 7.66c.73 2.84.81 5.76.23 8.78h-25.35c.35.89.83 1.69 1.43 2.41.59.72 1.33 1.3 2.2 1.73s1.89.66 3.06.68c1.11.03 2.15-.21 3.1-.72s1.78-1.19 2.49-2.05l11.63 2.7c-1.55 3.37-3.85 6.12-6.92 8.26s-6.5 3.21-10.3 3.21Zm-7.11-24.59h14.25a8.4 8.4 0 0 0-1.6-2.89 8.05 8.05 0 0 0-2.49-1.98q-1.425-.72-3.06-.72c-1.635 0-2.07.24-3.02.72s-1.77 1.14-2.47 1.98-1.23 1.8-1.62 2.89Zm31.85 23.6-.04-38h11.4l.04 2.39c1.27-1.09 2.71-1.94 4.33-2.55s3.33-.91 5.13-.91c1.37 0 2.76.2 4.18.61l-4.48 11.55c-.89-.41-1.8-.61-2.74-.61-1.19 0-2.27.29-3.25.85-.98.57-1.75 1.34-2.32 2.32s-.85 2.06-.85 3.25v21.09h-11.4Zm61.29-26.6-15.96 15.2h15.96v11.4h-32.45v-11.4l15.96-15.2h-15.96v-11.4h32.45zm23.18 27.59c-3.5 0-6.68-.9-9.56-2.7s-5.17-4.21-6.88-7.24-2.56-6.38-2.56-10.05c0-2.79.49-5.39 1.48-7.81s2.35-4.55 4.08-6.38a19.1 19.1 0 0 1 6.06-4.31c2.3-1.04 4.76-1.56 7.37-1.56 3.5 0 6.68.9 9.56 2.7s5.17 4.22 6.88 7.26 2.57 6.41 2.57 10.11c0 2.76-.49 5.35-1.48 7.75a20.7 20.7 0 0 1-4.08 6.37 19.1 19.1 0 0 1-6.04 4.31c-2.29 1.04-4.76 1.56-7.39 1.56Zm0-11.4c1.44 0 2.74-.39 3.89-1.18a8.2 8.2 0 0 0 2.72-3.14c.66-1.3.99-2.73.99-4.27s-.35-3.05-1.04-4.37c-.7-1.32-1.62-2.36-2.77-3.13s-2.41-1.16-3.78-1.16-2.71.4-3.86 1.2-2.06 1.86-2.74 3.17a9.35 9.35 0 0 0-1.01 4.29c0 1.62.35 3.08 1.04 4.37.7 1.29 1.62 2.32 2.77 3.08q1.725 1.14 3.78 1.14Zm52.21-27.59h11.4v38.38c0 2.89-.58 5.48-1.73 7.77a17.7 17.7 0 0 1-4.73 5.87c-2 1.62-4.3 2.86-6.9 3.71s-5.34 1.27-8.23 1.27c-2.69 0-5.26-.51-7.71-1.54s-4.65-2.45-6.57-4.27a20.5 20.5 0 0 1-4.56-6.35l10.41-4.71a9.3 9.3 0 0 0 2.09 2.91c.86.8 1.84 1.41 2.93 1.84s2.23.65 3.42.65c1.32 0 2.58-.14 3.8-.42q1.83-.42 3.27-1.29t2.28-2.22.84-3.21v-3.72a13.7 13.7 0 0 1-4.05 3.14c-1.56.8-3.35 1.2-5.38 1.2-2.76 0-5.34-.52-7.75-1.56a20.3 20.3 0 0 1-6.36-4.31 20.3 20.3 0 0 1-4.31-6.37c-1.04-2.41-1.56-4.99-1.56-7.75s.52-5.34 1.56-7.75 2.48-4.53 4.31-6.37c1.84-1.84 3.96-3.27 6.36-4.31 2.41-1.04 4.99-1.56 7.75-1.56 2.03 0 3.82.4 5.38 1.2s2.91 1.84 4.05 3.14v-3.34Zm-9.27 28.04c1.57 0 3-.4 4.29-1.22 1.29-.81 2.32-1.9 3.08-3.27s1.14-2.89 1.14-4.56-.38-3.19-1.14-4.56-1.79-2.46-3.08-3.27-2.72-1.22-4.29-1.22-2.96.41-4.24 1.22q-1.92 1.215-3.06 3.27c-1.14 2.055-1.14 2.89-1.14 4.56s.38 3.19 1.14 4.56 1.78 2.46 3.06 3.27 2.69 1.22 4.24 1.22m45.37 10.95c-3.5 0-6.68-.9-9.56-2.7s-5.17-4.22-6.88-7.26-2.56-6.4-2.56-10.07c0-2.76.49-5.35 1.48-7.77s2.35-4.55 4.08-6.38a19.1 19.1 0 0 1 6.06-4.31c2.3-1.04 4.76-1.56 7.37-1.56 3.04 0 5.82.67 8.34 2s4.65 3.13 6.38 5.4c1.74 2.27 2.97 4.82 3.71 7.66.73 2.84.81 5.76.23 8.78h-25.35c.35.89.83 1.69 1.42 2.41.6.72 1.33 1.3 2.2 1.73s1.89.66 3.06.68c1.11.03 2.15-.21 3.1-.72s1.78-1.19 2.49-2.05l11.63 2.7c-1.55 3.37-3.85 6.12-6.92 8.26s-6.5 3.21-10.3 3.21Zm-7.1-24.59h14.25a8.4 8.4 0 0 0-1.6-2.89 8.05 8.05 0 0 0-2.49-1.98q-1.425-.72-3.06-.72c-1.635 0-2.07.24-3.02.72s-1.77 1.14-2.47 1.98-1.24 1.8-1.62 2.89Zm67.49-.68v24.28h-11.4v-21.09c0-1.19-.29-2.27-.87-3.25a6.5 6.5 0 0 0-2.32-2.32c-.96-.57-2.04-.85-3.23-.85s-2.27.29-3.25.85c-.98.57-1.75 1.34-2.32 2.32s-.85 2.06-.85 3.25v21.09h-11.4l-.04-38h11.4l.04 2.39c1.27-1.09 2.71-1.94 4.33-2.55s3.33-.91 5.13-.91c2.74 0 5.22.67 7.45 2q3.345 1.995 5.34 5.34c1.995 3.345 2 4.71 2 7.45Zm34.12-13.72h11.4v38h-11.44l-.53-3.42c-.94 1.32-2.12 2.38-3.55 3.19s-3.1 1.22-5 1.22c-2.84 0-5.49-.53-7.96-1.6a20.5 20.5 0 0 1-6.52-4.43 20.6 20.6 0 0 1-4.39-6.54c-1.05-2.47-1.58-5.12-1.58-7.96s.49-5.24 1.48-7.6 2.38-4.43 4.16-6.21c1.79-1.79 3.85-3.19 6.19-4.2s4.86-1.52 7.54-1.52c2.18 0 4.16.45 5.95 1.35q2.685 1.35 4.77 3.36l-.53-3.65Zm-9.43 28.04c1.57 0 3-.4 4.29-1.22 1.29-.81 2.32-1.9 3.08-3.27s1.14-2.89 1.14-4.56-.38-3.19-1.14-4.56-1.79-2.46-3.08-3.27-2.72-1.22-4.29-1.22-3 .41-4.28 1.22-2.29 1.9-3.04 3.27-1.12 2.89-1.12 4.56.38 3.19 1.14 4.56 1.78 2.46 3.06 3.27 2.69 1.22 4.24 1.22m26.91-3.83v-24.21h11.4v21.01c0 1.19.29 2.27.87 3.25s1.36 1.75 2.34 2.32c.97.57 2.04.85 3.21.85s2.27-.29 3.25-.85a6.37 6.37 0 0 0 3.18-5.57v-21.01h11.4l.04 38h-11.4l-.04-2.47a14.4 14.4 0 0 1-4.33 2.55c-1.62.61-3.33.91-5.13.91-2.71 0-5.19-.66-7.43-1.99a15.15 15.15 0 0 1-5.36-5.34c-1.33-2.23-2-4.71-2-7.45m43.32 13.79-.04-38h11.4l.04 2.39c1.27-1.09 2.71-1.94 4.33-2.55s3.33-.91 5.13-.91c1.37 0 2.76.2 4.18.61l-4.48 11.55c-.89-.41-1.8-.61-2.74-.61-1.19 0-2.27.29-3.25.85-.98.57-1.75 1.34-2.32 2.32s-.85 2.06-.85 3.25v21.09h-11.4Zm54.6-38h11.4v38h-11.44l-.53-3.42c-.94 1.32-2.12 2.38-3.55 3.19s-3.1 1.22-5 1.22c-2.84 0-5.49-.53-7.96-1.6a20.5 20.5 0 0 1-6.52-4.43 20.6 20.6 0 0 1-4.39-6.54c-1.05-2.47-1.58-5.12-1.58-7.96s.49-5.24 1.48-7.6 2.38-4.43 4.16-6.21c1.79-1.79 3.85-3.19 6.19-4.2s4.86-1.52 7.54-1.52c2.18 0 4.16.45 5.95 1.35q2.685 1.35 4.77 3.36l-.53-3.65Zm-9.42 28.04c1.57 0 3-.4 4.29-1.22 1.29-.81 2.32-1.9 3.08-3.27s1.14-2.89 1.14-4.56-.38-3.19-1.14-4.56-1.79-2.46-3.08-3.27-2.72-1.22-4.29-1.22-3 .41-4.28 1.22-2.29 1.9-3.04 3.27-1.12 2.89-1.12 4.56.38 3.19 1.14 4.56 1.78 2.46 3.06 3.27 2.69 1.22 4.24 1.22m49.32-2.5 10.26 5.55c-1.75 2.38-3.94 4.29-6.57 5.74-2.64 1.44-5.51 2.17-8.63 2.17-3.5 0-6.68-.9-9.56-2.7s-5.17-4.21-6.88-7.24-2.56-6.38-2.56-10.05c0-2.79.49-5.39 1.48-7.81s2.35-4.55 4.08-6.38a19.1 19.1 0 0 1 6.06-4.31c2.3-1.04 4.76-1.56 7.37-1.56 3.12 0 5.99.72 8.63 2.17a19.5 19.5 0 0 1 6.57 5.81l-10.26 5.55c-.68-.68-1.45-1.21-2.3-1.58s-1.73-.55-2.64-.55c-1.44 0-2.74.41-3.88 1.22s-2.05 1.88-2.72 3.19c-.67 1.32-1.01 2.74-1.01 4.26s.34 2.89 1.01 4.2c.67 1.3 1.58 2.36 2.72 3.17s2.43 1.22 3.88 1.22c.91 0 1.79-.18 2.64-.55s1.62-.87 2.3-1.5Zm51.27-11.82v24.28h-11.4v-21.09c0-1.19-.29-2.27-.87-3.25a6.5 6.5 0 0 0-2.32-2.32c-.96-.57-2.04-.85-3.23-.85s-2.27.29-3.25.85c-.98.57-1.75 1.34-2.32 2.32s-.85 2.06-.85 3.25v21.09h-11.4l-.04-57h11.4l.04 21.39c1.27-1.09 2.71-1.94 4.33-2.55s3.33-.91 5.13-.91c2.74 0 5.22.67 7.45 2q3.345 1.995 5.34 5.34c1.995 3.345 2 4.71 2 7.45Z" class="st7"/></svg>