<?xml version="1.0" encoding="UTF-8" standalone="no"?>
<svg
   xmlns:dc="http://purl.org/dc/elements/1.1/"
   xmlns:cc="http://creativecommons.org/ns#"
   xmlns:rdf="http://www.w3.org/1999/02/22-rdf-syntax-ns#"
   xmlns:svg="http://www.w3.org/2000/svg"
   xmlns="http://www.w3.org/2000/svg"
   xmlns:sodipodi="http://sodipodi.sourceforge.net/DTD/sodipodi-0.dtd"
   xmlns:inkscape="http://www.inkscape.org/namespaces/inkscape"
   version="1.0"
   width="192.000000pt"
   height="192.000000pt"
   viewBox="0 0 192.000000 192.000000"
   preserveAspectRatio="xMidYMid meet"
   id="svg4622"
   sodipodi:docname="gymh-white.svg"
   inkscape:version="0.92.3 (2405546, 2018-03-11)">
  <metadata
     id="metadata4628">
    <rdf:RDF>
      <cc:Work
         rdf:about="">
        <dc:format>image/svg+xml</dc:format>
        <dc:type
           rdf:resource="http://purl.org/dc/dcmitype/StillImage" />
        <dc:title></dc:title>
      </cc:Work>
    </rdf:RDF>
  </metadata>
  <defs
     id="defs4626" />
  <sodipodi:namedview
     pagecolor="#ffffff"
     bordercolor="#666666"
     borderopacity="1"
     objecttolerance="10"
     gridtolerance="10"
     guidetolerance="10"
     inkscape:pageopacity="0"
     inkscape:pageshadow="2"
     inkscape:window-width="1920"
     inkscape:window-height="1017"
     id="namedview4624"
     showgrid="false"
     inkscape:zoom="0.921875"
     inkscape:cx="128"
     inkscape:cy="128"
     inkscape:window-x="-8"
     inkscape:window-y="-8"
     inkscape:window-maximized="1"
     inkscape:current-layer="svg4622" />
  <g
     transform="translate(0.000000,192.000000) scale(0.100000,-0.100000)"
     fill="#000000"
     stroke="none"
     id="g4620"
     style="fill:#ffffff">
    <path
       d="M850 1670 c0 -5 4 -10 8 -10 10 0 102 -69 120 -90 21 -25 39 -63 46 -96 7 -30 6 -31 -34 -38 -36 -6 -46 -3 -78 22 -20 16 -62 45 -92 63 -48 30 -63 34 -120 34 -72 -1 -115 -18 -168 -68 -49 -47 -72 -120 -71 -230 1 -161 48 -239 171 -286 35 -14 77 -30 94 -37 25 -9 33 -20 38 -49 10 -51 -2 -57 -96 -50 -128 9 -161 33 -226 161 -22 44 -40 65 -64 77 -18 9 -37 12 -41 8 -5 -5 -7 -134 -5 -287 3 -259 4 -282 24 -324 37 -78 95 -134 191 -181 l88 -44 158 -3 157 -3 0 424 0 424 -40 27 c-22 14 -46 26 -55 26 -11 0 -15 11 -15 40 l0 40 90 0 90 0 0 -230 0 -230 43 -22 c38 -21 56 -23 202 -23 l160 0 3 149 c1 90 7 155 14 163 6 8 33 13 73 13 48 0 64 4 69 16 3 9 6 84 6 168 0 142 -2 155 -25 202 -35 69 -84 125 -159 177 -101 71 -130 77 -358 77 -125 0 -198 -4 -198 -10z"
       id="path4616"
       style="fill:#ffffff" />
    <path
       d="M1020 456 l0 -165 33 -23 c30 -22 43 -23 205 -26 l172 -3 0 165 0 166 -40 25 c-38 24 -46 25 -205 25 l-165 0 0 -164z"
       id="path4618"
       style="fill:#ffffff" />
  </g>
</svg>
